inDegrees=yes
name=ik_S42_A03_T01
DataType=double
version=3
OpenSimVersion=4.3-2021-08-27-4bc7ad9
endheader
time	pelvis_tilt	pelvis_list	pelvis_rotation	pelvis_tx	pelvis_ty	pelvis_tz	hip_flexion_r	hip_adduction_r	hip_rotation_r	knee_angle_r	knee_angle_r_beta	ankle_angle_r	subtalar_angle_r	mtp_angle_r	hip_flexion_l	hip_adduction_l	hip_rotation_l	knee_angle_l	knee_angle_l_beta	ankle_angle_l	subtalar_angle_l	mtp_angle_l	lumbar_extension	lumbar_bending	lumbar_rotation	arm_flex_r	arm_add_r	arm_rot_r	elbow_flex_r	pro_sup_r	wrist_flex_r	wrist_dev_r	arm_flex_l	arm_add_l	arm_rot_l	elbow_flex_l	pro_sup_l	wrist_flex_l	wrist_dev_l
0	0	0	0	0	0.9399999999999999	0	0	0	0	0	0	0	0	0	0	0	0	0	0	0	0	0	0	0	0	0	0	0	0	89.99999999963507	0	0	0	0	0	0	89.99999999869995	0	0
0.02	-0.7728441443605304	0.6851766507415794	-80.50108918559627	0	0.9399999999999999	0	1.576098969628027	2.586135486525322	-1.298681228842564	1.257164104492064	0.02194165286127256	0	0	0	3.229794127459841	3.932501122583459	-2.869011005265202	0.08933439344518349	0.001559179300890492	0	0	0	0	0	0	1.700939637024691	-1.700939637024691	0.3026167469862019	8.398580663298528	89.69738327042633	0	0	1.700939637024691	-1.700939637024691	0.3026167469862019	8.398580663298528	89.69738326954806	0	0
0.04	-0.8076776224514619	0.7614332879378025	-80.55522951411643	0	0.9399999999999999	0	1.438913398443136	2.522963048383451	-1.546066019268195	1.170170039614387	0.02042331999946353	0	0	0	3.258871391765768	3.950328911442575	-2.841155634122928	0.07499950072114708	0.001308988224935878	0	0	0	0	0	0	1.705580875796866	-1.705580875796866	0.3035293144518665	8.440607713584514	89.69647070301534	0	0	1.705580875796866	-1.705580875796866	0.3035293144518665	8.440607713584514	89.69647070213722	0	0
0.06	-0.838145530993529	0.7991899875923109	-80.59736434653982	0	0.9399999999999999	0	1.418210826754728	2.518047822349024	-1.543667555175089	1.165804925576899	0.02034713438728434	0	0	0	3.248065282315653	3.965014118714069	-2.83093713906429	0.07523481067554971	0.001313095158402922	0	0	0	0	0	0	1.705953912584256	-1.705953912584256	0.3036004294460959	8.443482950373721	89.69639958802534	0	0	1.705953912584256	-1.705953912584256	0.3036004294460959	8.443482950373721	89.69639958714723	0	0
0.08	-0.8661239475969462	0.8374708026194637	-80.63565416561714	0	0.9399999999999999	0	1.398506047495259	2.514813328767081	-1.513857866941807	1.159520750090906	0.02023745483428065	0	0	0	3.238108195485415	3.990309036787091	-2.794430772638306	0.07599689029857007	0.001326395956986984	0	0	0	0	0	0	1.706450092179033	-1.706450092179033	0.3036953487865903	8.44737689734594	89.6963046686905	0	0	1.706450092179033	-1.706450092179033	0.3036953487865903	8.44737689734594	89.69630466781241	0	0
0.1	-0.8547761270872998	0.8565977946170958	-80.68849844606353	0	0.9399999999999999	0	1.362102851679671	2.479367656522067	-1.414079119306517	1.107102214491662	0.01932257879899997	0	0	0	3.207248574177293	4.055442807100919	-2.765600607577904	0.05930471251913223	0.001035062495407558	0	0	0	0	0	0	1.824394070235378	-1.824394070235378	0.3256407630010359	8.753606059545129	89.67435925576945	0	0	1.824394070235378	-1.824394070235378	0.3256407630010359	8.753606059545129	89.67435925489546	0	0
0.12	-0.876380514718574	0.8784296226801335	-80.71854386416305	0	0.9399999999999999	0	1.349643748240643	2.469253362131344	-1.350523454266553	1.104077393138571	0.01926978570710391	0	0	0	3.138084475391727	4.117167728841374	-2.69922277836445	0.04808699927402905	0.00083927646473593	0	0	0	0	0	0	1.825638303043402	-1.825638303043402	0.3258822466541866	8.764066617386602	89.67411777213073	0	0	1.825638303043402	-1.825638303043402	0.3258822466541866	8.764066617386602	89.67411777125679	0	0
0.14	-0.856871972187742	0.8513559630036056	-80.74766490374238	0	0.9399999999999999	0	1.314237165036248	2.43354499388369	-1.334033586129721	1.149937636353267	0.02007019794696574	0	0	0	3.076328456746939	4.185769377331712	-2.673060442449196	0.1075227224747756	0.001876625527892939	0	0	0	0	0	0	1.960245063041902	-1.960245063041902	0.3508995065122061	9.130317973069751	89.64910051374682	0	0	1.960245063041902	-1.960245063041902	0.3508995065122061	9.130317973069751	89.64910051287758	0	0
0.16	-0.8602224649278141	0.8650682643376897	-80.77067574649841	0	0.9399999999999999	0	1.325698311562555	2.44003589403316	-1.319417672721608	1.156739219219687	0.02018890796233202	0	0	0	3.083892614852632	4.220198667043622	-2.636522970528827	0.1813829188577055	0.003165729140944673	0	0	0	0	0	0	2.257415194621067	-2.257415194621067	0.4070197487158786	10.49579111983449	89.59298027486602	0	0	2.257415194621067	-2.257415194621067	0.4070197487158786	10.49579111983449	89.59298027400732	0	0
0.18	-0.8901639512724723	0.8836732312511379	-80.77507105101107	0	0.9399999999999999	0	1.342972365382145	2.448362046979085	-1.319698611455924	1.167348905045771	0.02037408191259934	0	0	0	3.076325430527315	4.231629303477303	-2.602216981177914	0.1340868216965591	0.002340256522139526	0	0	0	0	0	0	2.376237257283139	-2.376237257283139	0.428999885745683	10.81768413972675	89.57100013912992	0	0	2.376237257283139	-2.376237257283139	0.428999885745683	10.81768413972675	89.57100013827534	0	0
0.2	-0.9067221185572601	0.9067232173738673	-80.78268596821663	0	0.9399999999999999	0	1.368020835818337	2.450262825096843	-1.32042754062766	1.188193709720847	0.02073789238611454	0	0	0	3.072153821542905	4.249423405129439	-2.570844383903937	0.1772114360314409	0.003092923030935958	0	0	0	0	0	0	2.497856698235332	-2.497856698235332	0.4514745222067731	11.16664725336265	89.54852550399143	0	0	2.497856698235332	-2.497856698235332	0.4514745222067731	11.16664725336265	89.54852550314104	0	0
